<?xml version="1.0" encoding="UTF-8"?>
<svg width="200" height="200" viewBox="0 0 200 200" xmlns="http://www.w3.org/2000/svg">
  <defs>
    <radialGradient id="goldenGlow" cx="50%" cy="50%" r="50%" fx="50%" fy="50%">
      <stop offset="0%" style="stop-color:#FFD700"/>
      <stop offset="100%" style="stop-color:#DAA520"/>
    </radialGradient>
    <filter id="glow">
      <feGaussianBlur stdDeviation="3" result="coloredBlur"/>
      <feMerge>
        <feMergeNode in="coloredBlur"/>
        <feMergeNode in="SourceGraphic"/>
      </feMerge>
    </filter>
  </defs>
  
  <!-- 發光效果 -->
  <circle cx="100" cy="110" r="75" fill="#FFD700" opacity="0.3" filter="url(#glow)"/>
  
  <!-- 身體 -->
  <circle cx="100" cy="110" r="70" fill="url(#goldenGlow)" filter="url(#glow)"/>
  
  <!-- 肚子 -->
  <ellipse cx="100" cy="130" rx="45" ry="40" fill="#FFF8DC"/>
  
  <!-- 臉部 -->
  <circle cx="100" cy="90" r="60" fill="#FFD700"/>
  
  <!-- 眼睛 -->
  <circle cx="80" cy="80" r="12" fill="white"/>
  <circle cx="120" cy="80" r="12" fill="white"/>
  <circle cx="80" cy="80" r="6" fill="black"/>
  <circle cx="120" cy="80" r="6" fill="black"/>
  <!-- 眼睛反光 -->
  <circle cx="83" cy="77" r="3" fill="white"/>
  <circle cx="123" cy="77" r="3" fill="white"/>
  
  <!-- 臉頰 -->
  <circle cx="70" cy="95" r="10" fill="#FFE4B5" opacity="0.8"/>
  <circle cx="130" cy="95" r="10" fill="#FFE4B5" opacity="0.8"/>
  
  <!-- 鼻子 -->
  <circle cx="100" cy="95" r="8" fill="black"/>
  
  <!-- 耳朵 -->
  <path d="M50,50 Q60,20 80,40 Z" fill="#FFD700"/>
  <path d="M150,50 Q140,20 120,40 Z" fill="#FFD700"/>
  <path d="M55,45 Q62,25 75,40 Z" fill="#DAA520"/>
  <path d="M145,45 Q138,25 125,40 Z" fill="#DAA520"/>
  
  <!-- 嘴巴（微笑）-->
  <path d="M85,105 Q100,115 115,105" stroke="black" stroke-width="3" fill="none"/>
  
  <!-- 閃光效果 -->
  <circle cx="70" cy="60" r="3" fill="white" opacity="0.8"/>
  <circle cx="130" cy="60" r="3" fill="white" opacity="0.8"/>
  <circle cx="60" cy="100" r="2" fill="white" opacity="0.6"/>
  <circle cx="140" cy="100" r="2" fill="white" opacity="0.6"/>
</svg> 