<?xml version="1.0" encoding="UTF-8"?>
<svg width="200" height="200" viewBox="0 0 200 200" xmlns="http://www.w3.org/2000/svg">
  <defs>
    <radialGradient id="moleGradient" cx="50%" cy="50%" r="50%" fx="50%" fy="50%">
      <stop offset="0%" style="stop-color:#8B4513"/>
      <stop offset="100%" style="stop-color:#654321"/>
    </radialGradient>
  </defs>
  
  <!-- 身體 -->
  <circle cx="100" cy="110" r="70" fill="url(#moleGradient)"/>
  
  <!-- 肚子 -->
  <ellipse cx="100" cy="130" rx="45" ry="40" fill="#A0522D"/>
  
  <!-- 臉部 -->
  <circle cx="100" cy="90" r="60" fill="#8B4513"/>
  
  <!-- 眼睛 -->
  <circle cx="80" cy="80" r="12" fill="white"/>
  <circle cx="120" cy="80" r="12" fill="white"/>
  <circle cx="80" cy="80" r="6" fill="black"/>
  <circle cx="120" cy="80" r="6" fill="black"/>
  <!-- 眼睛反光 -->
  <circle cx="83" cy="77" r="3" fill="white"/>
  <circle cx="123" cy="77" r="3" fill="white"/>
  
  <!-- 臉頰 -->
  <circle cx="70" cy="95" r="10" fill="#CD853F" opacity="0.6"/>
  <circle cx="130" cy="95" r="10" fill="#CD853F" opacity="0.6"/>
  
  <!-- 鼻子 -->
  <circle cx="100" cy="95" r="8" fill="black"/>
  
  <!-- 耳朵 -->
  <path d="M50,50 Q60,20 80,40 Z" fill="#8B4513"/>
  <path d="M150,50 Q140,20 120,40 Z" fill="#8B4513"/>
  <path d="M55,45 Q62,25 75,40 Z" fill="#A0522D"/>
  <path d="M145,45 Q138,25 125,40 Z" fill="#A0522D"/>
  
  <!-- 嘴巴（微笑）-->
  <path d="M85,105 Q100,115 115,105" stroke="black" stroke-width="3" fill="none"/>
  
  <!-- 鬍鬚 -->
  <line x1="60" y1="95" x2="40" y2="90" stroke="black" stroke-width="1.5"/>
  <line x1="60" y1="100" x2="40" y2="100" stroke="black" stroke-width="1.5"/>
  <line x1="60" y1="105" x2="40" y2="110" stroke="black" stroke-width="1.5"/>
  <line x1="140" y1="95" x2="160" y2="90" stroke="black" stroke-width="1.5"/>
  <line x1="140" y1="100" x2="160" y2="100" stroke="black" stroke-width="1.5"/>
  <line x1="140" y1="105" x2="160" y2="110" stroke="black" stroke-width="1.5"/>
</svg> 