<?xml version="1.0" encoding="iso-8859-1"?>
<!-- Uploaded to: SVG Repo, www.svgrepo.com, Generator: SVG Repo Mixer Tools -->
<svg version="1.1" id="Layer_1" xmlns="http://www.w3.org/2000/svg" xmlns:xlink="http://www.w3.org/1999/xlink" 
	 viewBox="0 0 512.002 512.002" xml:space="preserve">
<rect x="61.074" y="346.389" transform="matrix(-0.7071 -0.7071 0.7071 -0.7071 -156.3534 788.8506)" style="fill:#C7B299;" width="48.251" height="160.836"/>
<path style="fill:#A67C52;" d="M130.688,358.575l22.746-22.746l51.178-96.67L426.519,17.252c12.487-12.487,32.731-12.487,45.218,0
	l23.019,23.019c12.487,12.487,12.487,32.731,0,45.218L272.848,307.397l-96.67,51.178l-22.745,22.746"/>
<path style="fill:#C69C6D;" d="M494.757,85.49c12.487-12.487,12.487-32.731,0-45.218l-17.06-17.06
	c12.487,12.487,12.487,32.731,0,45.218L255.79,290.339l-96.67,51.178l-22.746,22.746l17.06,17.06l22.746-22.746l96.67-51.178"/>
<polygon style="fill:#C1272D;" points="193.238,261.905 153.434,335.829 130.688,358.575 153.434,381.321 176.18,358.575 
	250.104,318.771 "/>
<polygon style="fill:#CD5257;" points="233.044,301.711 159.12,341.516 136.374,364.262 153.434,381.321 176.18,358.575 
	250.104,318.771 "/>
<polygon style="fill:#C7B299;" points="250.104,318.771 193.238,261.905 204.612,239.161 272.848,307.397 "/>
<g>
	
		<rect x="98.031" y="377.787" transform="matrix(-0.7071 -0.7071 0.7071 -0.7071 -67.1321 751.8926)" style="fill:#C1272D;" width="48.251" height="24.125"/>
	
		<rect x="63.916" y="411.902" transform="matrix(-0.7071 -0.7071 0.7071 -0.7071 -149.4926 786.0085)" style="fill:#C1272D;" width="48.251" height="24.125"/>
	
		<rect x="29.802" y="446.023" transform="matrix(-0.7071 -0.7071 0.7071 -0.7071 -231.8553 820.1334)" style="fill:#C1272D;" width="48.251" height="24.125"/>
</g>
<rect x="21.274" y="458.726" transform="matrix(-0.7071 -0.7071 0.7071 -0.7071 -252.444 828.6606)" width="48.251" height="15.774"/>
<rect x="-3.833" y="475.791" transform="matrix(-0.7071 -0.7071 0.7071 -0.7071 -293.6396 845.7269)" width="64.339" height="15.774"/>
<rect x="38.33" y="441.669" transform="matrix(-0.7071 -0.7071 0.7071 -0.7071 -211.2656 811.6036)" width="48.251" height="15.774"/>
<rect x="55.388" y="424.607" transform="matrix(-0.7071 -0.7071 0.7071 -0.7071 -170.082 794.5376)" width="48.251" height="15.774"/>
<rect x="72.445" y="407.55" transform="matrix(-0.7071 -0.7071 0.7071 -0.7071 -128.9021 777.4805)" width="48.251" height="15.774"/>
<rect x="89.503" y="390.491" transform="matrix(-0.7071 -0.7071 0.7071 -0.7071 -87.72 760.4217)" width="48.251" height="15.774"/>
<rect x="106.559" y="373.431" transform="matrix(-0.7071 -0.7071 0.7071 -0.7071 -46.5409 743.3593)" width="48.251" height="15.774"/>
<path d="M500.335,34.695l-23.02-23.019C469.786,4.147,459.776,0,449.13,0c-10.648,0-20.658,4.147-28.187,11.675L199.034,233.583
	l-0.838,0.838l-51.178,96.67l-21.908,21.908l11.155,11.154l23.584-23.584l34.926-65.971l42.638,42.637l-65.971,34.926
	l-23.585,23.584l11.155,11.154l21.907-21.907l96.67-51.178L500.335,91.066C515.876,75.525,515.876,50.237,500.335,34.695z
	 M489.18,79.913L272.85,296.244l-5.796-5.796l-11.155,11.154l3.822,3.822L252,309.511l-49.502-49.502l4.088-7.721l43.626,43.626
	l11.155-11.155l-45.601-45.601l216.332-216.33c4.548-4.549,10.597-7.054,17.032-7.054c6.433,0,12.482,2.506,17.031,7.054
	l23.019,23.019C498.571,55.239,498.571,70.522,489.18,79.913z"/>
<g>
	
		<rect x="276.325" y="253.868" transform="matrix(-0.7071 -0.7071 0.7071 -0.7071 299.9826 648.0763)" style="fill:#C1272D;" width="15.774" height="16.084"/>
	
		<rect x="293.37" y="236.81" transform="matrix(-0.7071 -0.7071 0.7071 -0.7071 341.1423 631.01)" style="fill:#C1272D;" width="15.774" height="16.084"/>
	
		<rect x="310.437" y="219.753" transform="matrix(-0.7071 -0.7071 0.7071 -0.7071 382.3379 613.9586)" style="fill:#C1272D;" width="15.774" height="16.084"/>
	
		<rect x="327.489" y="202.688" transform="matrix(-0.7071 -0.7071 0.7071 -0.7071 423.5155 596.8849)" style="fill:#C1272D;" width="15.774" height="16.084"/>
</g>
<g>
	<path style="fill:#FFFFFF;" d="M449.02,108.263l-11.155-11.155l27.365-27.365c3.785-3.785,3.785-9.943,0-13.727l-4.619-4.619
		l11.155-11.154l4.619,4.619c9.934,9.936,9.934,26.101,0,36.035L449.02,108.263z"/>
	
		<rect x="424.16" y="106.021" transform="matrix(-0.7071 -0.7071 0.7071 -0.7071 656.8954 500.2207)" style="fill:#FFFFFF;" width="15.774" height="16.084"/>
</g>
</svg>